HIERARCHY
ROOT Hips
{
    OFFSET 0.000000 0.000000 0.000000
    CHANNELS 6 Xposition Yposition Zposition Zrotation Xrotation Yrotation
    JOINT Spine
    {
        OFFSET -0.000000 6.993131 0.000000
        CHANNELS 3 Zrotation Xrotation Yrotation
        JOINT Spine1
        {
            OFFSET -0.000000 20.649729 0.000000
            CHANNELS 3 Zrotation Xrotation Yrotation
            JOINT Neck
            {
                OFFSET -0.000000 20.564924 1.869539
                CHANNELS 3 Zrotation Xrotation Yrotation
                JOINT Head
                {
                    OFFSET -0.000000 11.939490 -1.705642
                    CHANNELS 3 Zrotation Xrotation Yrotation
                    End Site
                    {
                        OFFSET -0.000000 21.320518 0.000000
                    }
                }
            }
            JOINT LeftShoulder
            {
                OFFSET 3.446977 19.850397 -0.038759
                CHANNELS 3 Zrotation Xrotation Yrotation
                JOINT LeftArm
                {
                    OFFSET 7.083611 0.000000 0.000000
                    CHANNELS 3 Zrotation Xrotation Yrotation
                    JOINT LeftForeArm
                    {
                        OFFSET 32.044487 0.000000 0.000000
                        CHANNELS 3 Zrotation Xrotation Yrotation
                        JOINT LeftHand
                        {
                            OFFSET 22.068741 0.000000 0.000000
                            CHANNELS 3 Zrotation Xrotation Yrotation
                            End Site
                            {
                                OFFSET 12.792312 0.000000 0.000000
                            }
                        }
                    }
                }
            }
            JOINT RightShoulder
            {
                OFFSET -3.365844 19.850397 -0.038759
                CHANNELS 3 Zrotation Xrotation Yrotation
                JOINT RightArm
                {
                    OFFSET -7.083611 0.000000 0.000000
                    CHANNELS 3 Zrotation Xrotation Yrotation
                    JOINT RightForeArm
                    {
                        OFFSET -32.044487 0.000000 0.000000
                        CHANNELS 3 Zrotation Xrotation Yrotation
                        JOINT RightHand
                        {
                            OFFSET -22.068741 0.000000 0.000000
                            CHANNELS 3 Zrotation Xrotation Yrotation
                            End Site
                            {
                                OFFSET -12.792312 0.000000 0.000000
                            }
                        }
                    }
                }
            }
        }
    }
    JOINT LeftUpLeg
    {
        OFFSET 8.528208 0.000000 0.000000
        CHANNELS 3 Zrotation Xrotation Yrotation
        JOINT LeftLeg
        {
            OFFSET -0.000000 -31.874865 0.000000
            CHANNELS 3 Zrotation Xrotation Yrotation
            JOINT LeftFoot
            {
                OFFSET -0.000000 -38.221939 0.000000
                CHANNELS 3 Zrotation Xrotation Yrotation
                JOINT LeftToeBase
                {
                    OFFSET -0.000000 -5.543335 12.792312
                    CHANNELS 3 Zrotation Xrotation Yrotation
                    End Site
                    {
                        OFFSET -0.000000 0.000000 3.411283
                    }
                }
            }
        }
    }
    JOINT RightUpLeg
    {
        OFFSET -8.528208 0.000000 0.000000
        CHANNELS 3 Zrotation Xrotation Yrotation
        JOINT RightLeg
        {
            OFFSET -0.000000 -31.874865 0.000000
            CHANNELS 3 Zrotation Xrotation Yrotation
            JOINT RightFoot
            {
                OFFSET -0.000000 -38.221939 0.000000
                CHANNELS 3 Zrotation Xrotation Yrotation
                JOINT RightToeBase
                {
                    OFFSET -0.000000 -5.543335 12.792312
                    CHANNELS 3 Zrotation Xrotation Yrotation
                    End Site
                    {
                        OFFSET -0.000000 0.000000 3.411283
                    }
                }
            }
        }
    }
}
MOTION
Frames:    11
Frame Time:    0.008333
-155.689926    76.692139    15.127426    -3.262096    0.743098    89.238823    -0.755680    -8.050622    -0.795564    -1.924432    0.786531    -0.729256    0.155100    11.564169    2.523957    -0.180703    4.576231    2.602064    19.480736    0.275779    -0.491578    -21.613535    -1.566247    -1.409446    4.944168    3.913803    -0.900727    5.058029    3.802804    -3.398461    -12.392320    1.102589    0.978609    13.896286    4.837676    5.189347    -7.438839    8.138883    1.885908    -4.010987    8.277009    -0.483493    -6.062555    -7.318966    -1.371051    3.560794    14.951883    0.828577    0.559442    -8.556252    0.122904    0.000000    0.000000    0.000000    -7.421304    -3.786506    -0.491224    8.601468    10.708194    -1.831010    -0.864921    -7.773009    -9.806049    0.000000    0.000000    0.000000    
-155.672104    76.690491    15.128893    -3.235096    0.758417    89.177963    -0.685907    -8.148001    -0.893525    -2.044226    1.020441    -0.826500    0.001351    11.352679    2.663584    -0.112302    4.651837    2.761297    19.531553    0.261022    -0.278376    -21.628578    -1.500089    -1.261076    4.922568    3.861245    -0.983731    4.434069    3.767752    -3.511805    -12.521984    1.028871    1.195967    14.038741    4.747549    5.251046    -7.394157    7.978481    1.818735    -3.947947    8.111491    -0.486964    -6.081019    -7.286175    -1.403013    3.559305    14.971676    0.903122    0.571433    -8.557426    0.136084    0.000000    0.000000    0.000000    -7.427436    -3.729698    -0.494204    8.582061    10.661453    -1.781925    -0.896613    -7.780634    -9.787118    0.000000    0.000000    0.000000    
-155.671677    76.691338    15.128576    -3.237763    0.756955    89.132706    -0.700017    -8.146583    -0.873228    -2.032070    1.011557    -0.805412    0.011817    11.343585    2.667780    -0.119156    4.647891    2.764462    19.531517    0.262497    -0.293963    -21.623924    -1.529205    -1.259534    4.876919    3.877512    -0.952949    4.371646    3.785125    -3.488440    -12.506317    1.035957    1.196982    14.016916    4.792564    5.233264    -7.437739    7.962461    1.791813    -3.543589    8.089340    -0.375965    -6.078854    -7.287344    -1.430102    3.549858    14.971629    0.965987    0.563060    -8.567085    0.132407    0.000000    0.000000    0.000000    -7.422767    -3.748465    -0.499880    8.573532    10.679792    -1.762310    -0.889233    -7.778388    -9.760405    0.000000    0.000000    0.000000    
-155.668869    76.691643    15.127741    -3.232850    0.758684    89.089149    -0.796440    -8.067767    -0.762762    -1.936692    0.856799    -0.692072    0.191074    11.421360    2.580039    -0.249897    4.653951    2.651619    19.570467    0.249178    -0.450394    -21.699707    -1.602265    -1.389968    4.875257    3.999106    -0.816097    4.247132    3.903918    -3.509331    -12.392281    1.091259    0.983500    13.905954    4.882833    5.224707    -7.345706    7.844710    1.847774    -4.060117    7.985486    -0.662938    -6.082843    -7.286643    -1.426240    3.550964    14.985190    1.005003    0.543469    -8.560255    0.133410    0.000000    0.000000    0.000000    -7.420308    -3.746504    -0.480597    8.566985    10.666497    -1.812573    -0.867277    -7.763993    -9.691608    0.000000    0.000000    0.000000    
-155.665436    76.691025    15.129380    -3.234763    0.754904    89.048691    -0.826581    -8.080921    -0.744467    -1.889683    0.865868    -0.671895    0.174338    11.429703    2.567405    -0.246673    4.632262    2.639539    19.546942    0.244886    -0.478691    -21.701500    -1.619798    -1.377865    4.864963    4.088143    -0.790866    4.069871    3.998078    -3.486228    -12.397552    1.097311    0.977665    13.897682    4.893310    5.216325    -7.333848    7.856649    1.859843    -3.992552    7.999531    -0.718267    -6.082004    -7.296528    -1.374345    3.569174    15.003908    0.994423    0.536329    -8.571286    0.136079    0.000000    0.000000    0.000000    -7.414099    -3.754029    -0.483416    8.563842    10.674583    -1.706084    -0.925836    -7.761699    -9.755335    0.000000    0.000000    0.000000    
-155.661362    76.690712    15.128767    -3.227800    0.765258    89.006287    -0.844313    -8.095259    -0.737577    -1.887391    0.886627    -0.663271    0.172755    11.470173    2.593426    -0.254293    4.551699    2.665793    19.546638    0.241462    -0.494555    -21.712965    -1.657196    -1.352140    4.860786    4.150842    -0.749671    3.900928    4.061137    -3.574507    -12.390884    1.082218    0.974502    13.903260    4.898018    5.243749    -7.339838    7.912938    1.854922    -3.894116    8.054234    -0.696660    -6.093683    -7.290802    -1.411246    3.559989    15.016307    1.045933    0.527941    -8.560468    0.150244    0.000000    0.000000    0.000000    -7.415158    -3.756359    -0.491208    8.548045    10.673779    -1.768181    -0.896312    -7.758130    -9.653594    0.000000    0.000000    0.000000    
-155.657730    76.689873    15.131918    -3.217937    0.758159    88.974266    -0.844380    -8.099281    -0.737682    -1.889466    0.899183    -0.663195    0.200283    11.463910    2.620987    -0.307194    4.552456    2.687736    19.532682    0.256317    -0.490176    -21.698069    -1.682228    -1.341582    4.845691    4.187066    -0.737218    3.799767    4.100160    -3.566433    -12.384412    1.096136    1.020543    13.903956    4.870159    5.221620    -7.314759    7.961679    1.871943    -3.806186    8.102009    -0.663332    -6.084324    -7.286458    -1.392069    3.559967    15.033592    1.035170    0.541874    -8.571895    0.175226    0.000000    0.000000    0.000000    -7.395422    -3.751108    -0.476254    8.529969    10.679897    -1.720507    -0.917794    -7.764382    -9.676774    0.000000    0.000000    0.000000    
-155.656296    76.688690    15.133342    -3.215116    0.756311    88.945869    -0.866640    -8.127344    -0.730391    -1.859228    0.953801    -0.653404    0.206290    11.396381    2.639179    -0.333603    4.607644    2.703707    19.522659    0.264104    -0.506061    -21.701891    -1.728374    -1.327048    4.840549    4.196590    -0.747248    3.730033    4.114559    -3.495182    -12.401089    1.085874    0.990176    13.899840    4.881647    5.245813    -7.280298    7.976285    1.877734    -3.712133    8.112178    -0.548314    -6.083744    -7.286073    -1.398346    3.563881    15.045423    1.050623    0.540058    -8.585694    0.195962    0.000000    0.000000    0.000000    -7.399949    -3.815364    -0.422984    8.550646    10.790897    -1.711764    -0.881894    -7.787636    -9.720282    0.000000    0.000000    0.000000    
-155.658310    76.690628    15.131472    -3.214132    0.734820    88.873764    -0.814352    -8.129090    -0.711745    -1.903869    0.956412    -0.638075    0.186131    11.372675    2.681150    -0.300340    4.631608    2.751805    19.521446    0.264540    -0.484621    -21.696014    -1.709415    -1.314689    4.908595    4.141588    -0.734432    3.371791    4.072492    -3.422637    -12.376868    1.066342    1.015504    13.897582    4.881145    5.247707    -7.268996    7.934784    1.902606    -3.481091    8.070446    -0.530579    -6.069175    -7.291787    -1.369299    3.578163    15.059209    1.088658    0.536194    -8.592053    0.201458    0.000000    0.000000    0.000000    -7.377791    -3.839171    -0.358279    8.552360    10.799775    -1.696313    -0.855906    -7.758741    -9.736170    0.000000    0.000000    0.000000    
-155.655411    76.687790    15.134353    -3.201002    0.727502    88.855858    -0.820933    -8.122354    -0.705168    -1.904616    0.953538    -0.631130    0.240925    11.380655    2.727999    -0.358350    4.634579    2.792130    19.513565    0.270147    -0.503367    -21.686020    -1.732973    -1.330750    4.815720    4.148831    -0.689825    3.776493    4.063553    -3.472769    -12.369334    1.077252    1.021328    13.910044    4.887208    5.240072    -7.244299    7.852204    1.910753    -3.443102    7.988462    -0.551493    -6.057090    -7.286461    -1.370924    3.567697    15.074558    1.110882    0.551029    -8.619186    0.205485    0.000000    0.000000    0.000000    -7.367569    -3.826863    -0.351178    8.551773    10.799335    -1.714780    -0.884110    -7.758832    -9.705285    0.000000    0.000000    0.000000    
-155.646683    76.683632    15.140651    -3.172061    0.748631    88.878937    -0.868891    -8.114879    -0.741625    -1.895569    0.976883    -0.663842    0.255258    11.383559    2.787042    -0.396279    4.614344    2.848957    19.508587    0.268624    -0.495480    -21.691971    -1.700301    -1.319309    4.743862    4.169714    -0.646539    4.226392    4.066420    -3.531750    -12.382763    1.091523    1.038451    13.944570    4.875366    5.263483    -7.247422    7.776775    1.924954    -3.409524    7.914827    -0.585694    -6.084037    -7.266151    -1.393292    3.578805    15.099494    1.119356    0.533802    -8.621373    0.190481    0.000000    0.000000    0.000000    -7.385965    -3.728151    -0.417553    8.538298    10.698879    -1.747162    -0.899559    -7.778741    -9.606190    0.000000    0.000000    0.000000    
